HIERARCHY
ROOT Hips
{
  OFFSET 5.84602e-005 68.8428 3.50346
  CHANNELS 6 Xposition Yposition Zposition Zrotation Xrotation Yrotation
  JOINT Spine
  {
    OFFSET 0 8.597 -4.6522
    CHANNELS 3 Zrotation Xrotation Yrotation
    JOINT Spine1
    {
      OFFSET 0 7.8454 0.4098
      CHANNELS 3 Zrotation Xrotation Yrotation
      JOINT Spine2
      {
        OFFSET 0 9.7078 -2.1609
        CHANNELS 3 Zrotation Xrotation Yrotation
        JOINT Neck
        {
          OFFSET 0 21.8761 -0.4549
          CHANNELS 3 Zrotation Xrotation Yrotation
          JOINT Head
          {
            OFFSET 0 12.3537 3.3602
            CHANNELS 3 Zrotation Xrotation Yrotation
            End Site
            {
              OFFSET 0.0001 18.9506 0.5657
            }
          }
        }
        JOINT LeftShoulder
        {
          OFFSET 2.2086 21.1115 7.2329
          CHANNELS 3 Zrotation Xrotation Yrotation
          JOINT LeftArm
          {
            OFFSET 13.1193 3.0282 -4.8998
            CHANNELS 3 Zrotation Xrotation Yrotation
            JOINT LeftForeArm
            {
              OFFSET 27.4081 -0.0973053 -0.2375
              CHANNELS 3 Zrotation Xrotation Yrotation
              JOINT LeftHand
              {
                OFFSET 22.8641 0.0662994 -0.1369
                CHANNELS 3 Zrotation Xrotation Yrotation
                JOINT LeftHandIndex1
                {
                  OFFSET 8.8614 0.775009 2.4612
                  CHANNELS 3 Zrotation Xrotation Yrotation
                  JOINT LeftHandIndex2
                  {
                    OFFSET 3.3146 -0.808304 0.5841
                    CHANNELS 3 Zrotation Xrotation Yrotation
                    JOINT LeftHandIndex3
                    {
                      OFFSET 2.2628 -0.552002 0.3989
                      CHANNELS 3 Zrotation Xrotation Yrotation
                      End Site
                      {
                        OFFSET 1.6102 -0.4807 0.2612
                      }
                    }
                  }
                }
                JOINT LeftHandMiddle1
                {
                  OFFSET 8.9937 0.895004 0.2143
                  CHANNELS 3 Zrotation Xrotation Yrotation
                  JOINT LeftHandMiddle2
                  {
                    OFFSET 4.0984 0.0113983 -0.0242
                    CHANNELS 3 Zrotation Xrotation Yrotation
                    JOINT LeftHandMiddle3
                    {
                      OFFSET 2.2716 0.00689697 -0.0138001
                      CHANNELS 3 Zrotation Xrotation Yrotation
                      End Site
                      {
                        OFFSET 2.0404 -0.1441 0.0027
                      }
                    }
                  }
                }
                JOINT LeftHandRing1
                {
                  OFFSET 8.5234 0.597198 -2.0164
                  CHANNELS 3 Zrotation Xrotation Yrotation
                  JOINT LeftHandRing2
                  {
                    OFFSET 3.7188 -0.188293 -0.2328
                    CHANNELS 3 Zrotation Xrotation Yrotation
                    JOINT LeftHandRing3
                    {
                      OFFSET 2.1191 -0.106598 -0.1332
                      CHANNELS 3 Zrotation Xrotation Yrotation
                      End Site
                      {
                        OFFSET 1.8737 -0.2304 -0.0886
                      }
                    }
                  }
                }
                JOINT LeftHandPinky1
                {
                  OFFSET 7.9094 -0.601089 -3.4825
                  CHANNELS 3 Zrotation Xrotation Yrotation
                  JOINT LeftHandPinky2
                  {
                    OFFSET 2.2874 -0.477005 -0.6314
                    CHANNELS 3 Zrotation Xrotation Yrotation
                    JOINT LeftHandPinky3
                    {
                      OFFSET 1.6774 -0.349396 -0.4633
                      CHANNELS 3 Zrotation Xrotation Yrotation
                      End Site
                      {
                        OFFSET 1.4888 -0.4091 -0.3416
                      }
                    }
                  }
                }
                JOINT LeftHandThumb1
                {
                  OFFSET 1.833 -1.3875 1.3896
                  CHANNELS 3 Zrotation Xrotation Yrotation
                  JOINT LeftHandThumb2
                  {
                    OFFSET 3.4129 -1.121 2.5732
                    CHANNELS 3 Zrotation Xrotation Yrotation
                    JOINT LeftHandThumb3
                    {
                      OFFSET 2.2474 -0.804199 1.6192
                      CHANNELS 3 Zrotation Xrotation Yrotation
                      End Site
                      {
                        OFFSET 1.6527 -0.5689 1.1317
                      }
                    }
                  }
                }
              }
            }
          }
        }
        JOINT RightShoulder
        {
          OFFSET -2.2086 21.1115 7.2329
          CHANNELS 3 Zrotation Xrotation Yrotation
          JOINT RightArm
          {
            OFFSET -13.1216 3.0287 -4.9007
            CHANNELS 3 Zrotation Xrotation Yrotation
            JOINT RightForeArm
            {
              OFFSET -27.4081 -0.0973053 -0.2375
              CHANNELS 3 Zrotation Xrotation Yrotation
              JOINT RightHand
              {
                OFFSET -22.8641 0.0664063 -0.1369
                CHANNELS 3 Zrotation Xrotation Yrotation
                JOINT RightHandIndex1
                {
                  OFFSET -8.8614 0.774994 2.4612
                  CHANNELS 3 Zrotation Xrotation Yrotation
                  JOINT RightHandIndex2
                  {
                    OFFSET -3.3146 -0.808304 0.5841
                    CHANNELS 3 Zrotation Xrotation Yrotation
                    JOINT RightHandIndex3
                    {
                      OFFSET -2.2628 -0.552002 0.3989
                      CHANNELS 3 Zrotation Xrotation Yrotation
                      End Site
                      {
                        OFFSET -1.6102 -0.4807 0.2612
                      }
                    }
                  }
                }
                JOINT RightHandMiddle1
                {
                  OFFSET -8.9937 0.894989 0.2143
                  CHANNELS 3 Zrotation Xrotation Yrotation
                  JOINT RightHandMiddle2
                  {
                    OFFSET -4.0984 0.0113983 -0.0242
                    CHANNELS 3 Zrotation Xrotation Yrotation
                    JOINT RightHandMiddle3
                    {
                      OFFSET -2.2716 0.00691223 -0.0138001
                      CHANNELS 3 Zrotation Xrotation Yrotation
                      End Site
                      {
                        OFFSET -2.0404 -0.1441 0.0027
                      }
                    }
                  }
                }
                JOINT RightHandRing1
                {
                  OFFSET -8.5234 0.597198 -2.0164
                  CHANNELS 3 Zrotation Xrotation Yrotation
                  JOINT RightHandRing2
                  {
                    OFFSET -3.7188 -0.188309 -0.2328
                    CHANNELS 3 Zrotation Xrotation Yrotation
                    JOINT RightHandRing3
                    {
                      OFFSET -2.1191 -0.106598 -0.1332
                      CHANNELS 3 Zrotation Xrotation Yrotation
                      End Site
                      {
                        OFFSET -1.8737 -0.2304 -0.0886
                      }
                    }
                  }
                }
                JOINT RightHandPinky1
                {
                  OFFSET -7.9094 -0.601105 -3.4825
                  CHANNELS 3 Zrotation Xrotation Yrotation
                  JOINT RightHandPinky2
                  {
                    OFFSET -2.2874 -0.477005 -0.6314
                    CHANNELS 3 Zrotation Xrotation Yrotation
                    JOINT RightHandPinky3
                    {
                      OFFSET -1.6774 -0.349396 -0.4633
                      CHANNELS 3 Zrotation Xrotation Yrotation
                      End Site
                      {
                        OFFSET -1.4888 -0.4091 -0.3416
                      }
                    }
                  }
                }
                JOINT RightHandThumb1
                {
                  OFFSET -1.833 -1.38751 1.3896
                  CHANNELS 3 Zrotation Xrotation Yrotation
                  JOINT RightHandThumb2
                  {
                    OFFSET -3.41299 -1.12099 2.5732
                    CHANNELS 3 Zrotation Xrotation Yrotation
                    JOINT RightHandThumb3
                    {
                      OFFSET -2.24741 -0.804108 1.6192
                      CHANNELS 3 Zrotation Xrotation Yrotation
                      End Site
                      {
                        OFFSET -1.6527 -0.5689 1.1317
                      }
                    }
                  }
                }
              }
            }
          }
        }
      }
    }
  }
  JOINT RightUpLeg
  {
    OFFSET -9.1966 3.8861 -0.7581
    CHANNELS 3 Zrotation Xrotation Yrotation
    JOINT RightLeg
    {
      OFFSET -0.7359 -41.0265 0
      CHANNELS 3 Zrotation Xrotation Yrotation
      JOINT RightFoot
      {
        OFFSET 0 -40.2855 0
        CHANNELS 3 Zrotation Xrotation Yrotation
        JOINT RightToeBase
        {
          OFFSET 0 -5.6122 11.7359
          CHANNELS 3 Zrotation Xrotation Yrotation
          End Site
          {
            OFFSET 0 0 7.8731
          }
        }
      }
    }
  }
  JOINT LeftUpLeg
  {
    OFFSET 9.1965 3.8864 -0.7581
    CHANNELS 3 Zrotation Xrotation Yrotation
    JOINT LeftLeg
    {
      OFFSET 0.7359 -41.0268 0
      CHANNELS 3 Zrotation Xrotation Yrotation
      JOINT LeftFoot
      {
        OFFSET 0 -40.2855 0
        CHANNELS 3 Zrotation Xrotation Yrotation
        JOINT LeftToeBase
        {
          OFFSET 0 -5.6122 11.7359
          CHANNELS 3 Zrotation Xrotation Yrotation
          End Site
          {
            OFFSET 0 0 7.8731
          }
        }
      }
    }
  }
}
MOTION
Frames:	4
Frame Time:	0.0333333
5.84602e-005 68.8428 3.50346 0 0 -0 0 0 -0 0 0 -0 0 0 -0 0 0 -0 0 0 -0 0 0 -0 0 0 -0 0 0 -0 0 0 -0 0 0 -0 0 0 -0 0 0 -0 0 0 -0 -0.0146107 -8.87603e-005 -2.63497e-007 2.99804e-018 -2.42657e-020 -1.42182e-022 0 0 -0 -0.0187562 -0.001176 5.858e-005 5.06224e-018 3.88251e-019 1.21329e-020 0 0 -0 -0.012269 -0.00324817 0.000675346 -1.74678e-018 3.88251e-019 -0 0 0 -0 0 0 -0 0 0 -0 0 0 -0 0 0 -0 0 0 -0 0 0 -0 0 0 -0 0 0 -0 0 0 -0 0 0 -0 0.0149955 -9.10982e-005 2.64101e-007 -9.69331e-018 1.21329e-020 -4.7394e-023 0 0 -0 0.0189956 -0.00119102 -5.96516e-005 -5.41541e-019 0 2.42657e-020 0 0 -0 0.0122698 -0.00324857 -0.000673756 -2.00796e-019 0 -1.94126e-019 0 0 -0 0 0 -0 0 0 -0 3.39842 1.33031 -0.0637918 -5.65207e-008 0.834868 -0.000436188 -3.39935 -2.16518 -0.0642563 -8.89002e-024 -1.18485e-023 -1.48106e-024 -3.39844 1.35642 0.0640283 -3.18788e-007 0.782166 -0.000588827 3.39931 -2.13858 0.0634662 1.1399e-023 0 -0 
2.5141 4.02902 6.29898 -47.1291 -89.9994 -0.12942 0.0322349 -0.308887 -9.88354 0.0109353 -0.618731 -19.7673 0.0109499 -0.618714 -19.7673 -6.67924 18.4668 -18.5509 1.49644 -11.2599 0.0473676 -28.3861 -0.712987 2.45504 -44.795 8.97378 -47.5816 -47.3141 25.9177 -7.27192 -26.472 7.7642 -8.98643 -3.97569e-016 7.95139e-016 -0 -7.95139e-016 1.59028e-015 -0 -7.95139e-016 1.59028e-015 -0 -3.97569e-016 7.95139e-016 -0 -0.0146097 -8.8963e-005 1.37092e-006 -0 -1.59028e-015 -0 -3.97569e-016 7.95139e-016 -0 -0.0187294 -0.00117369 6.08901e-005 -3.97569e-016 7.95139e-016 -6.36111e-015 -3.97569e-016 7.95139e-016 -0 -0.0122998 -0.00325647 0.000681253 3.97569e-016 7.95139e-016 -3.18055e-015 -3.97569e-016 7.95139e-016 -0 -7.95139e-016 1.59028e-015 -0 -7.95139e-016 1.59028e-015 -0 -21.1581 -5.95031 -1.94405 -28.5249 -5.65461 3.3729 -70.8025 60.6231 -0.276087 6.99683 -1.4381e-006 -3.26052e-006 1.98785e-016 1.98785e-016 -3.18055e-015 1.42649e-006 -8.0225e-007 -2.48166e-007 -4.47266e-015 -1.799e-014 -9.54166e-015 1.98785e-016 1.98785e-016 -3.18055e-015 0.0149999 -9.23666e-005 -5.21224e-006 -3.97569e-015 1.44119e-015 6.36111e-015 1.98785e-016 1.98785e-016 -3.18055e-015 0.0189875 -0.00119127 -6.0872e-005 -5.56597e-015 -3.8266e-015 -9.54166e-015 1.98785e-016 1.98785e-016 -3.18055e-015 0.0122445 -0.00324303 -0.000679457 3.97569e-016 -3.03147e-015 6.36111e-015 1.98785e-016 1.98785e-016 -3.18055e-015 1.42649e-006 -8.0225e-007 -2.48166e-007 -4.47266e-015 -1.799e-014 -9.54166e-015 -8.52861 -7.06246 -26.9019 10.5152 61.6567 -12.1779 -8.56808 19.3147 0.450656 4.99883e-011 1.56498e-006 7.44692e-007 11.5868 -13.515 2.8252 -6.59973 13.6472 1.85609 8.44306 11.6705 0.80909 -8.50123e-006 -1.9405e-006 -4.93466e-006 
2.51403 4.02861 6.29892 -47.1291 -89.9994 -0.12942 0.0322349 -0.308887 -9.88354 0.0109353 -0.618731 -19.7673 0.0109499 -0.618714 -19.7673 -6.50103 18.4632 -18.5975 1.92633 -11.2546 0.133757 -28.3861 -0.712986 2.45504 -44.795 8.97378 -47.5816 -46.5731 25.8269 -7.37193 -26.472 7.7642 -8.98642 -2.08519e-007 4.34944e-008 1.25781e-008 -2.08519e-007 4.34943e-008 1.25781e-008 -2.08519e-007 4.34943e-008 1.25781e-008 -2.08519e-007 4.34944e-008 1.25781e-008 -0.0146271 -8.90322e-005 2.10235e-006 -2.0852e-007 4.34928e-008 1.25838e-008 -2.08519e-007 4.34944e-008 1.25781e-008 -0.0187626 -0.00117602 5.85409e-005 -2.0852e-007 4.34924e-008 1.25873e-008 -2.08519e-007 4.34944e-008 1.25781e-008 -0.0122987 -0.00325586 0.000680829 -2.08519e-007 4.34941e-008 1.25887e-008 -2.08519e-007 4.34944e-008 1.25781e-008 -2.08519e-007 4.34943e-008 1.25781e-008 -2.08519e-007 4.34943e-008 1.25781e-008 -21.1581 -5.95031 -1.94405 -28.5249 -5.65462 3.37289 -70.8026 60.6231 -0.276026 6.99682 2.81162e-006 -1.42377e-006 9.24349e-015 4.42296e-015 -3.18055e-015 3.14855e-007 -1.59802e-006 -6.18332e-007 7.15625e-015 -2.61899e-014 6.36111e-015 9.24349e-015 4.42296e-015 -3.18055e-015 0.0150015 -9.17019e-005 -3.39203e-006 9.93923e-016 -2.42517e-014 -6.36111e-015 9.24349e-015 4.42296e-015 -3.18055e-015 0.0190026 -0.00119071 -5.90069e-005 -1.36537e-006 3.61432e-007 -2.41979e-006 9.24349e-015 4.42296e-015 -3.18055e-015 0.0122599 -0.00324529 -0.000674151 -1.36601e-006 3.61388e-007 -2.4198e-006 9.24349e-015 4.42296e-015 -3.18055e-015 3.14855e-007 -1.59802e-006 -6.18332e-007 7.15625e-015 -2.61899e-014 6.36111e-015 -8.52886 -7.06266 -26.9019 10.5153 61.6567 -12.1779 -8.56806 19.3149 0.450669 1.59028e-015 3.18055e-015 -1.59028e-015 11.5184 -13.5775 2.49495 -6.6003 13.6614 1.85856 8.44879 11.6563 0.809554 -4.77083e-015 0 1.98785e-015 
2.51395 4.0282 6.29886 -47.1291 -89.9994 -0.12942 0.0322349 -0.308887 -9.88354 0.0109353 -0.618731 -19.7673 0.0109499 -0.618714 -19.7673 -6.32309 18.4585 -18.644 2.35659 -11.2486 0.220165 -28.3861 -0.712986 2.45504 -44.795 8.97377 -47.5816 -45.831 25.7347 -7.47079 -26.472 7.7642 -8.98642 6.25127e-007 -1.32263e-007 -3.70488e-008 -2.08376e-007 4.40878e-008 1.23496e-008 4.16752e-007 -8.81756e-008 -2.46992e-008 6.25127e-007 -1.32263e-007 -3.70488e-008 -0.0145763 -8.88161e-005 -5.12171e-006 4.16753e-007 -8.81724e-008 -2.47108e-008 6.25127e-007 -1.32263e-007 -3.70488e-008 -0.0187805 -0.00117691 6.13083e-005 4.16753e-007 -8.81716e-008 -2.47179e-008 6.25127e-007 -1.32263e-007 -3.70488e-008 -0.0122651 -0.0032457 0.000677969 4.16752e-007 -8.8175e-008 -2.47205e-008 6.25127e-007 -1.32263e-007 -3.70488e-008 -2.08376e-007 4.40878e-008 1.23496e-008 4.16752e-007 -8.81756e-008 -2.46992e-008 -21.1581 -5.95031 -1.94405 -28.5249 -5.65462 3.37289 -70.8026 60.6231 -0.276052 6.99682 6.13816e-008 8.25205e-006 5.96354e-016 9.44227e-016 9.54166e-015 -3.18055e-015 3.97569e-016 3.18055e-015 9.93923e-016 -1.93815e-015 -3.18055e-015 5.96354e-016 9.44227e-016 9.54166e-015 0.0149982 -9.21539e-005 -1.68849e-006 1.88845e-015 6.31141e-015 -3.18055e-015 5.96354e-016 9.44227e-016 9.54166e-015 0.0189856 -0.00119131 -6.34724e-005 -1.36537e-006 3.61431e-007 -2.41979e-006 5.96354e-016 9.44227e-016 9.54166e-015 0.0122453 -0.00324239 -0.000673144 -2.38542e-015 3.47873e-016 3.18055e-015 5.96354e-016 9.44227e-016 9.54166e-015 -3.18055e-015 3.97569e-016 3.18055e-015 9.93923e-016 -1.93815e-015 -3.18055e-015 -8.52913 -7.06308 -26.9019 10.5155 61.657 -12.178 -8.56804 19.3151 0.45068 -7.95139e-016 -6.36111e-015 -1.59028e-015 11.4494 -13.6396 2.16426 -6.60086 13.6754 1.86102 8.45458 11.6423 0.810002 3.70107e-006 -3.3868e-006 -3.49839e-006 
